<svg width="1244" height="1244" viewBox="0 0 1244 1244" fill="none" xmlns="http://www.w3.org/2000/svg">
<path fill-rule="evenodd" clip-rule="evenodd" d="M726.893 83.2309C692.442 76.5572 657.149 73.1765 622.002 73.1765C586.848 73.1765 551.562 76.5572 517.111 83.2309C482.352 89.9558 448.142 100.098 415.439 113.358C347.407 140.945 286.341 181.514 233.925 233.923C181.516 286.332 140.947 347.405 113.36 415.437C100.1 448.14 89.965 482.35 83.2328 517.109C76.5591 551.56 73.1783 586.846 73.1783 622C73.1783 657.154 76.5591 692.44 83.2328 726.891C89.9577 761.65 100.1 795.86 113.36 828.563C140.947 896.595 181.516 957.66 233.925 1010.08C286.334 1062.49 347.407 1103.05 415.439 1130.64C448.142 1143.9 482.352 1154.04 517.111 1160.77C551.562 1167.44 586.848 1170.82 622.002 1170.82C657.156 1170.82 692.442 1167.44 726.893 1160.77C761.652 1154.04 795.862 1143.9 828.564 1130.64C896.597 1103.05 957.662 1062.49 1010.08 1010.08C1062.49 957.668 1103.06 896.595 1130.64 828.563C1143.9 795.86 1154.04 761.65 1160.77 726.891C1167.44 692.44 1170.83 657.154 1170.83 622C1170.83 586.846 1167.44 551.56 1160.77 517.109C1154.05 482.35 1143.9 448.14 1130.64 415.437C1103.06 347.405 1062.49 286.34 1010.08 233.923C957.67 181.514 896.597 140.945 828.564 113.358C795.862 100.098 761.652 89.9632 726.893 83.2309ZM182.182 182.18C303.633 60.7292 462.821 0 622.002 0C781.183 0 940.371 60.7292 1061.82 182.18C1304.73 425.082 1304.73 818.911 1061.82 1061.82C940.371 1183.27 781.183 1244 622.002 1244C462.821 1244 303.633 1183.27 182.182 1061.82C-60.7273 818.918 -60.7273 425.089 182.182 182.18ZM279.843 383.33C227.972 457.5 201.66 546.684 205.223 638.327C207.221 689.726 218.461 739.625 238.628 786.634C259.491 835.281 289.252 879.121 327.069 916.939C366.907 956.776 413.315 987.605 465.015 1008.57C489.873 1018.65 515.865 1026.35 542.282 1031.47C568.464 1036.54 595.291 1039.11 622.007 1039.11C670.516 1039.11 718.147 1030.82 763.575 1014.48C798.158 1002.03 830.692 985.169 860.687 964.174L570.257 673.744L279.843 383.33ZM247.563 305.469C255.1 296.571 265.777 292.048 276.483 292.048L276.49 292.056C286.091 292.056 295.713 295.693 303.104 303.083L622.022 622.001L940.94 940.919C956.57 956.557 955.414 982.161 938.547 996.452C847.391 1073.68 734.714 1112.28 622.015 1112.28C496.554 1112.28 371.063 1064.41 275.334 968.682C93.6145 786.963 84.3577 498.099 247.563 305.469Z" fill="#FFE669"/>
</svg>
